<svg aria-hidden="true" style="position: absolute; width: 0; height: 0; overflow: hidden;" version="1.1" xmlns="http://www.w3.org/2000/svg" xmlns:xlink="http://www.w3.org/1999/xlink">
<defs>
<symbol id="icon-logo" viewBox="0 0 17 32">
<path fill="#f8d24e" style="fill: var(--color1, #f8d24e)" d="M15.991 14.169c1.635-4.384-1.751-6.784-3.995-8.362-0.429-0.322-0.858-0.623-1.206-0.899-0.621-0.518-1.079-1.201-1.318-1.969s-0.251-1.587-0.033-2.361c0.022-0.081 0.022-0.166-0.002-0.247s-0.069-0.153-0.131-0.21-0.139-0.096-0.223-0.112c-0.083-0.017-0.169-0.010-0.249 0.018-0.756 0.295-1.458 0.709-2.081 1.225-0.598 0.456-1.083 1.041-1.417 1.711s-0.508 1.406-0.51 2.152c-0.423 0.33-0.797 0.716-1.111 1.149-0.577 0.778-0.866 1.729-0.82 2.693-0.687 0.624-1.199 1.413-1.486 2.291s-0.338 1.814-0.149 2.717c-0.273 0.163-0.485 0.411-0.602 0.704s-0.134 0.617-0.047 0.921c0.087 0.304 0.272 0.571 0.527 0.761s0.567 0.291 0.886 0.289h0.030v2.493c0 0.253 0.102 0.496 0.283 0.675s0.427 0.279 0.683 0.279h0.751l1.223 10.473c0.025 0.233 0.137 0.449 0.314 0.605s0.406 0.243 0.643 0.243h5.089c0.238-0.001 0.467-0.087 0.644-0.244s0.29-0.372 0.317-0.605l1.223-10.473h0.751c0.256 0 0.502-0.1 0.683-0.279s0.283-0.422 0.283-0.675v-2.493h0.030c0.388 0 0.76-0.152 1.035-0.423s0.428-0.639 0.428-1.022c0.002-0.191-0.035-0.381-0.109-0.558s-0.183-0.338-0.32-0.472l-0.013 0.004zM4.977 6.214c0.618 2.294 3.003 3.197 5.179 4.003 0.059 0.036 0.124 0.058 0.192 0.066s0.137 0 0.202-0.021c0.065-0.022 0.124-0.057 0.174-0.104s0.088-0.104 0.113-0.168c0.025-0.063 0.035-0.131 0.030-0.199s-0.025-0.133-0.058-0.193c-0.034-0.059-0.080-0.11-0.136-0.15s-0.12-0.066-0.187-0.079c-2.343-0.878-4.552-1.696-4.72-4.041-0.039-0.645 0.083-1.289 0.356-1.875s0.689-1.097 1.21-1.487c0.326-0.268 0.677-0.507 1.047-0.712-0.024 0.294-0.024 0.588 0 0.882 0.050 0.672 0.236 1.327 0.547 1.927s0.741 1.131 1.264 1.563c0.356 0.301 0.798 0.611 1.287 0.941 1.128 0.801 2.411 1.696 3.226 2.909 0.435 0.622 0.706 1.341 0.787 2.093s-0.028 1.512-0.32 2.211h-1.896c-3.909 0-8.401-1.069-9.289-4.062-0.176-0.616-0.175-1.268 0.004-1.883s0.528-1.169 1.008-1.598l-0.021-0.021zM8.495 20.669l1.433 1.416-1.433 1.416-1.433-1.425 1.433-1.408zM11.782 24.388l-1.184 1.17-1.433-1.416 1.433-1.412 1.244 1.225-0.060 0.433zM8.495 27.636l-1.433-1.416 1.433-1.416 1.433 1.416-1.433 1.416zM7.839 24.15l-1.433 1.416-1.193-1.179-0.051-0.424 1.244-1.225 1.433 1.412zM5.745 26.219l-0.287 0.284-0.073-0.644 0.36 0.36zM5.595 27.67l0.811-0.801 1.575 1.569c0.008 0.032 0.018 0.063 0.030 0.093h-2.317l-0.099-0.861zM10.589 26.868l0.811 0.801-0.099 0.848h-2.381l1.669-1.649zM11.533 26.504l-0.287-0.284 0.365-0.36-0.077 0.644zM11.962 22.798l-0.717-0.721 0.91-0.899-0.193 1.62zM10.585 21.432l-1.36-1.34h2.72l-1.36 1.34zM6.401 21.432l-1.36-1.34h2.72l-1.36 1.34zM11.035 30.489h-5.084c-0.008-0.001-0.015-0.004-0.020-0.010s-0.009-0.012-0.010-0.020l-0.12-1.018h5.389l-0.116 1.018c-0.001 0.008-0.005 0.016-0.011 0.021s-0.014 0.008-0.023 0.008h-0.004zM14.97 15.716h-1.493c-0.065-0.006-0.13 0.001-0.192 0.021s-0.119 0.053-0.167 0.097c-0.048 0.043-0.087 0.096-0.113 0.155s-0.040 0.123-0.040 0.187 0.014 0.128 0.040 0.187c0.026 0.059 0.065 0.112 0.113 0.155s0.105 0.076 0.167 0.096 0.127 0.028 0.192 0.021h0.532v2.493c-0.001 0.008-0.005 0.016-0.011 0.021s-0.014 0.008-0.023 0.008h-10.971c-0.008 0-0.017-0.003-0.023-0.008s-0.010-0.013-0.011-0.021v-2.493h8.5c0.116-0.011 0.223-0.064 0.301-0.149s0.122-0.196 0.122-0.311-0.043-0.226-0.122-0.311c-0.078-0.085-0.186-0.138-0.301-0.149h-9.439c-0.074 0.007-0.148-0.002-0.218-0.025s-0.134-0.061-0.189-0.11-0.098-0.109-0.128-0.176c-0.030-0.067-0.045-0.139-0.045-0.212s0.015-0.145 0.045-0.212c0.030-0.067 0.073-0.127 0.128-0.176s0.119-0.087 0.189-0.11 0.144-0.032 0.218-0.025h0.974c0.116-0.011 0.223-0.064 0.301-0.149s0.122-0.196 0.122-0.311c0-0.115-0.043-0.226-0.122-0.311s-0.186-0.138-0.301-0.149h-0.858c-0.123-0.645-0.103-1.309 0.059-1.946s0.461-1.232 0.877-1.743c0.3 0.924 1.073 2.188 3.003 3.193 1.815 0.937 4.218 1.416 7.139 1.416h1.716c0.074-0.007 0.148 0.002 0.218 0.025s0.134 0.061 0.189 0.11c0.055 0.049 0.098 0.109 0.128 0.176s0.045 0.139 0.045 0.212c0 0.073-0.015 0.145-0.045 0.212s-0.073 0.127-0.128 0.176-0.119 0.087-0.189 0.11c-0.070 0.023-0.144 0.032-0.218 0.025h0.030z"></path>
</symbol>

<symbol id="icon-burger" viewBox="0 0 32 32">
<path fill="#fff" style="fill: var(--color1, #fff)" d="M26.733 14.667h-21.467c-0.7 0-1.267 0.567-1.267 1.267v0.133c0 0.7 0.567 1.267 1.267 1.267h21.467c0.7 0 1.267-0.567 1.267-1.267v-0.133c0-0.7-0.567-1.267-1.267-1.267z"></path>
<path fill="#fff" style="fill: var(--color1, #fff)" d="M26.733 21.333h-21.467c-0.7 0-1.267 0.567-1.267 1.267v0.133c0 0.7 0.567 1.267 1.267 1.267h21.467c0.7 0 1.267-0.567 1.267-1.267v-0.133c0-0.7-0.567-1.267-1.267-1.267z"></path>
<path fill="#fff" style="fill: var(--color1, #fff)" d="M26.733 8h-21.467c-0.7 0-1.267 0.567-1.267 1.267v0.133c0 0.7 0.567 1.267 1.267 1.267h21.467c0.7 0 1.267-0.567 1.267-1.267v-0.133c0-0.7-0.567-1.267-1.267-1.267z"></path>
</symbol>

<symbol id="icon-close" viewBox="0 0 32 32">
<path fill="#fcfcfc" style="fill: var(--color1, #fcfcfc)" d="M23.884 6.706l-7.884 7.884-7.884-7.884c-0.19-0.174-0.439-0.267-0.696-0.261s-0.502 0.11-0.684 0.292c-0.182 0.182-0.286 0.427-0.292 0.684s0.088 0.506 0.261 0.696l7.88 7.884-7.882 7.882c-0.096 0.092-0.173 0.202-0.226 0.324s-0.081 0.253-0.083 0.386 0.023 0.265 0.073 0.388c0.050 0.123 0.124 0.235 0.218 0.329s0.206 0.169 0.329 0.219 0.255 0.075 0.388 0.074c0.133-0.002 0.264-0.029 0.386-0.082s0.232-0.13 0.324-0.226l7.886-7.882 7.884 7.884c0.19 0.174 0.439 0.267 0.696 0.262s0.502-0.11 0.684-0.292c0.182-0.182 0.286-0.427 0.292-0.684s-0.088-0.506-0.262-0.696l-7.884-7.884 7.884-7.886c0.096-0.092 0.173-0.202 0.226-0.324s0.081-0.253 0.083-0.386c0.002-0.133-0.023-0.265-0.073-0.388s-0.124-0.235-0.218-0.329c-0.094-0.094-0.206-0.169-0.329-0.219s-0.255-0.075-0.388-0.074-0.264 0.029-0.386 0.082c-0.122 0.053-0.232 0.13-0.324 0.226v0.002z"></path>
</symbol>

<symbol id="icon-btn-arrow" viewBox="0 0 32 32">
<path d="M10.586 3.272c-0.375 0.375-0.586 0.884-0.586 1.414s0.211 1.039 0.586 1.414l9.9 9.9-9.9 9.9c-0.364 0.377-0.566 0.882-0.561 1.407s0.215 1.026 0.586 1.397 0.872 0.581 1.397 0.586c0.524 0.005 1.030-0.197 1.407-0.561l11.314-11.314c0.375-0.375 0.586-0.884 0.586-1.414s-0.211-1.039-0.586-1.414l-11.314-11.314c-0.375-0.375-0.884-0.586-1.414-0.586s-1.039 0.211-1.414 0.586z"></path>
</symbol>

<symbol id="icon-product-arrow" viewBox="0 0 82 32">
<path d="M81.414 17.414c0.781-0.781 0.781-2.047 0-2.828l-12.728-12.728c-0.781-0.781-2.047-0.781-2.828 0s-0.781 2.047 0 2.828l11.314 11.314-11.314 11.314c-0.781 0.781-0.781 2.047 0 2.828s2.047 0.781 2.828 0l12.728-12.728zM0 18h80v-4h-80v4z"></path>
</symbol>

</defs>
</svg>
